<?xml version="1.0" encoding="UTF-8"?>
<!DOCTYPE svg PUBLIC "-//W3C//DTD SVG 1.1//EN" "http://www.w3.org/Graphics/SVG/1.1/DTD/svg11.dtd">
<!-- Creator: CorelDRAW 2019 (64-Bit) -->
<svg xmlns="http://www.w3.org/2000/svg" xml:space="preserve" width="54" height="54" version="1.1" style="shape-rendering:geometricPrecision; text-rendering:geometricPrecision; image-rendering:optimizeQuality; fill-rule:evenodd; clip-rule:evenodd"
viewBox="0 0 366.65 366.65"
 xmlns:xlink="http://www.w3.org/1999/xlink">
 <defs>
  <style type="text/css">
   <![CDATA[
    .fil0 {fill:#064B75}
    .fil1 {fill:white}
   ]]>
  </style>
 </defs>
 <g id="Layer_x0020_1">
  <metadata id="CorelCorpID_0Corel-Layer"/>
  <path class="fil0" d="M312.33 91.3c38.38,52.1 43.82,120.84 16.36,177.68 10.17,14.22 20.12,28.48 29.75,42.72 0.62,0.91 0.88,1.28 1.16,1.68 2.82,3.96 6.79,9.53 7.03,14.81 0.1,2.25 -0.53,4.7 -1.66,6.95 -0.93,1.84 -2.27,3.71 -3.81,5.22 -1.35,1.33 -5.29,3.88 -9.09,6.08 -3.87,2.24 -8.08,4.38 -9.86,4.81 -2.76,0.67 -5.26,0.23 -7.48,-0.76 -1.61,-0.72 -2.93,-1.68 -4.03,-2.61l-36.35 -31c-67.61,66.66 -176.45,66.38 -243.7,-0.86 -67.25,-67.25 -67.53,-176.09 -0.86,-243.7l-31 -36.35c-0.94,-1.1 -1.89,-2.42 -2.61,-4.03 -1,-2.22 -1.43,-4.72 -0.76,-7.48 0.43,-1.78 2.57,-5.99 4.81,-9.86 2.2,-3.8 4.75,-7.74 6.08,-9.09 1.51,-1.55 3.38,-2.88 5.22,-3.81 2.24,-1.13 4.7,-1.76 6.95,-1.66 5.28,0.24 10.85,4.2 14.81,7.03 0.4,0.29 0.78,0.55 1.68,1.17 14.23,9.63 28.49,19.59 42.72,29.75 56.83,-27.47 125.58,-22.02 177.68,16.36 0.74,-0.56 1.47,-1.1 2.21,-1.64 3.97,-2.89 7.94,-5.45 11.56,-7.24 3.73,-1.85 11.12,-4.44 17.66,-5.02 5.81,-0.52 11.36,0.49 15.07,4.39 3.9,3.71 4.91,9.25 4.39,15.07 -0.58,6.54 -3.17,13.93 -5.02,17.66 -1.79,3.61 -4.35,7.59 -7.24,11.55 -0.54,0.74 -1.08,1.47 -1.64,2.21z"/>
  <path class="fil1" d="M109.75 274.82l17.38 20.78c5.49,6.67 16.27,19.47 17.38,20.65 0.28,0.3 2.31,2.41 2.98,3.15 0.74,1.25 0.91,1.86 0.56,3.08 -3.57,12.17 -4.82,14.41 -11.66,20.86 -4.57,4.32 -8.15,6.34 -8.95,5.06l-54.59 -54.6 -54.6 -54.59c-1.28,-0.81 0.74,-4.38 5.06,-8.95 6.45,-6.83 8.69,-8.08 20.86,-11.66 1.22,-0.36 1.83,-0.18 3.08,0.56 0.74,0.67 2.85,2.7 3.15,2.98 1.18,1.11 13.98,11.88 20.65,17.38l20.78 17.38c4.41,-6.14 14.15,-18.65 19.75,-26.02 2.93,4.83 6.47,9.38 10.64,13.55 4.17,4.17 8.73,7.71 13.55,10.64 -7.36,5.6 -19.88,15.34 -26.02,19.75zm60.06 -152.78c-18.39,-0.44 -36.84,5.76 -51.43,18.64l-93.64 -109.83c-1.07,-1.26 -2.13,-2.88 -1.72,-4.58 0.5,-2.07 7.15,-13.56 8.86,-15.3 1.82,-1.85 4.48,-3.22 6.25,-3.14 3.58,0.16 9.4,4.82 12.44,6.87 38.33,25.94 76.73,54.14 113.91,82.39 7.06,-6.27 14.19,-11.8 21.46,-15.94l0.99 0.99 3.84 -1.95 -12.75 -12.75c-0.94,-0.94 -0.94,-2.48 0,-3.42 0.94,-0.94 2.48,-0.94 3.42,0l13.86 13.86 1.36 -0.69 1.55 1.55 1.55 1.55 -0.69 1.36 13.86 13.86c0.94,0.94 0.94,2.48 0,3.42 -0.94,0.94 -2.48,0.94 -3.42,0l-12.75 -12.75 -1.95 3.84 0.99 0.99c-3.72,6.52 -8.55,12.93 -14.03,19.28 8.82,6.77 17.56,13.53 26.2,20.23l50.65 -51.27c0.14,-0.15 0.3,-0.3 0.45,-0.46 0.76,-1.64 2,-3.41 3.63,-5.04 2.05,-2.05 4.31,-3.48 6.28,-4.12 7.35,-6.4 16.61,-13.7 23.62,-17.18 5.33,-2.64 19.37,-7.06 23.71,-2.12 4.94,4.34 0.53,18.39 -2.12,23.71 -3.48,7.01 -10.78,16.27 -17.18,23.62 -0.63,1.97 -2.07,4.23 -4.12,6.28 -1.63,1.63 -3.39,2.87 -5.04,3.63 -0.16,0.16 -0.31,0.31 -0.46,0.45l-51.27 50.65c6.71,8.64 13.46,17.38 20.23,26.2 6.35,-5.49 12.76,-10.32 19.28,-14.03l0.99 0.99 3.84 -1.95 -12.75 -12.75c-0.94,-0.94 -0.94,-2.48 0,-3.42 0.94,-0.94 2.48,-0.94 3.42,0l13.86 13.86 1.36 -0.69 1.55 1.55 1.55 1.55 -0.69 1.36 13.86 13.86c0.94,0.94 0.94,2.48 0,3.42 -0.94,0.94 -2.48,0.94 -3.42,0l-12.75 -12.75 -1.95 3.84 0.99 0.99c-4.14,7.26 -9.67,14.4 -15.94,21.46 28.25,37.17 56.45,75.57 82.39,113.91 2.06,3.04 6.71,8.86 6.87,12.44 0.08,1.77 -1.29,4.43 -3.14,6.25 -1.74,1.71 -13.23,8.36 -15.3,8.86 -1.7,0.41 -3.31,-0.64 -4.58,-1.72l-109.83 -93.64c12.88,-14.6 19.08,-33.05 18.64,-51.44 0.84,-19.38 -6.14,-39.04 -20.94,-53.84 -14.8,-14.8 -34.46,-21.78 -53.85,-20.94zm50.35 24.44c26.08,26.08 26.08,68.37 0,94.45 -26.08,26.08 -68.37,26.08 -94.45,0 -26.08,-26.08 -26.08,-68.37 0,-94.45 26.08,-26.08 68.37,-26.08 94.45,0z"/>
 </g>
</svg>
